ffmpeg started on 2016-12-06 at 10:21:22
Report written to "Output/x264/results/ffmpeg/sintelfast11000k.log"
Command line:
Tools/ffmpeg/ffmpeg -benchmark -y -i Input/y4m/sintel.y4m -c:v libx264 -preset fast -b:v 11000k -an Output/x264/encoded/sintelfast11000k.mkv
ffmpeg version N-82227-gdb23fde Copyright (c) 2000-2016 the FFmpeg developers
  built with gcc 5.4.0 (Ubuntu 5.4.0-6ubuntu1~16.04.2) 20160609
  configuration: --prefix=/home/jaroslav/ffmpeg_build --pkg-config-flags=--static --extra-cflags=-I/home/jaroslav/ffmpeg_build/include --extra-ldflags=-L/home/jaroslav/ffmpeg_build/lib --bindir=/home/jaroslav/bin --enable-gpl --enable-libass --enable-libfdk-aac --enable-libfreetype --enable-libmp3lame --enable-libopus --enable-libtheora --enable-libvorbis --enable-libvpx --enable-libx264 --enable-libx265 --enable-nvenc --enable-libmfx --enable-libxvid --enable-libgsm --enable-libopencore-amrnb --enable-version3 --enable-nonfree
  libavutil      55. 35.100 / 55. 35.100
  libavcodec     57. 66.101 / 57. 66.101
  libavformat    57. 57.100 / 57. 57.100
  libavdevice    57.  2.100 / 57.  2.100
  libavfilter     6. 66.100 /  6. 66.100
  libswscale      4.  3.100 /  4.  3.100
  libswresample   2.  4.100 /  2.  4.100
  libpostproc    54.  2.100 / 54.  2.100
Input #0, yuv4mpegpipe, from 'Input/y4m/sintel.y4m':
  Duration: 00:00:20.83, start: 0.000000, bitrate: 2057307 kb/s
    Stream #0:0: Video: rawvideo (I420 / 0x30323449), yuv420p(progressive), 4096x1744, SAR 1:1 DAR 256:109, 24 fps, 24 tbr, 24 tbn, 24 tbc
[libx264 @ 0x447a1c0] using SAR=1/1
[libx264 @ 0x447a1c0] using cpu capabilities: MMX2 SSE2Fast SSSE3 SSE4.2 AVX FMA3 AVX2 LZCNT BMI2
[libx264 @ 0x447a1c0] profile High, level 5.1
[libx264 @ 0x447a1c0] 264 - core 148 - H.264/MPEG-4 AVC codec - Copyleft 2003-2016 - http://www.videolan.org/x264.html - options: cabac=1 ref=2 deblock=1:0:0 analyse=0x3:0x113 me=hex subme=6 psy=1 psy_rd=1.00:0.00 mixed_ref=1 me_range=16 chroma_me=1 trellis=1 8x8dct=1 cqm=0 deadzone=21,11 fast_pskip=1 chroma_qp_offset=-2 threads=6 lookahead_threads=1 sliced_threads=0 nr=0 decimate=1 interlaced=0 bluray_compat=0 constrained_intra=0 bframes=3 b_pyramid=2 b_adapt=1 b_bias=0 direct=1 weightb=1 open_gop=0 weightp=1 keyint=250 keyint_min=24 scenecut=40 intra_refresh=0 rc_lookahead=30 rc=abr mbtree=1 bitrate=11000 ratetol=1.0 qcomp=0.60 qpmin=0 qpmax=69 qpstep=4 ip_ratio=1.40 aq=1:1.00
Output #0, matroska, to 'Output/x264/encoded/sintelfast11000k.mkv':
  Metadata:
    encoder         : Lavf57.57.100
    Stream #0:0: Video: h264 (libx264) (H264 / 0x34363248), yuv420p, 4096x1744 [SAR 1:1 DAR 256:109], q=-1--1, 11000 kb/s, 24 fps, 1k tbn, 24 tbc
    Metadata:
      encoder         : Lavc57.66.101 libx264
    Side data:
      cpb: bitrate max/min/avg: 0/0/11000000 buffer size: 0 vbv_delay: -1
Stream mapping:
  Stream #0:0 -> #0:0 (rawvideo (native) -> h264 (libx264))
Press [q] to stop, [?] for help
frame=    9 fps=0.0 q=0.0 size=       0kB time=00:00:00.00 bitrate=N/A speed=   0x    frame=   18 fps= 17 q=0.0 size=       0kB time=00:00:00.00 bitrate=N/A speed=   0x    frame=   27 fps= 17 q=0.0 size=       0kB time=00:00:00.00 bitrate=N/A speed=   0x    frame=   36 fps= 17 q=0.0 size=       0kB time=00:00:00.00 bitrate=N/A speed=   0x    frame=   37 fps=9.8 q=0.0 size=       0kB time=00:00:00.00 bitrate=N/A speed=   0x    frame=   38 fps=5.4 q=0.0 size=       0kB time=00:00:00.00 bitrate=N/A speed=   0x    frame=   39 fps=3.8 q=0.0 size=       0kB time=00:00:00.00 bitrate=N/A speed=   0x    frame=   40 fps=3.4 q=0.0 size=       0kB time=00:00:00.00 bitrate=N/A speed=   0x    frame=   45 fps=3.6 q=28.0 size=       1kB time=00:00:00.08 bitrate=  69.9kbits/s speed=0.00673x    frame=   48 fps=3.6 q=42.0 size=       1kB time=00:00:00.20 bitrate=  28.1kbits/s speed=0.0159x    frame=   54 fps=3.9 q=41.0 size=       1kB time=00:00:00.45 bitrate=  12.8kbits/s speed=0.0336x    frame=   58 fps=4.1 q=42.0 size=       1kB time=00:00:00.62 bitrate=   9.4kbits/s speed=0.044x    frame=   65 fps=4.4 q=41.0 size=       1kB time=00:00:00.91 bitrate=   6.4kbits/s speed=0.0618x    frame=   72 fps=4.6 q=40.0 size=       1kB time=00:00:01.20 bitrate=   4.9kbits/s speed=0.0777x    frame=   78 fps=4.8 q=39.0 size=       1kB time=00:00:01.45 bitrate=   4.0kbits/s speed=0.0903x    frame=   85 fps=5.1 q=39.0 size=       1kB time=00:00:01.75 bitrate=   3.4kbits/s speed=0.105x    frame=   92 fps=5.3 q=38.0 size=       1kB time=00:00:02.04 bitrate=   2.9kbits/s speed=0.118x    frame=   97 fps=5.4 q=38.0 size=       1kB time=00:00:02.25 bitrate=   2.6kbits/s speed=0.126x    frame=  102 fps=5.5 q=38.0 size=       1kB time=00:00:02.45 bitrate=   2.4kbits/s speed=0.133x    frame=  107 fps=5.6 q=38.0 size=       1kB time=00:00:02.66 bitrate=   2.2kbits/s speed=0.14x    frame=  113 fps=5.7 q=37.0 size=       1kB time=00:00:02.91 bitrate=   2.0kbits/s speed=0.148x    frame=  119 fps=5.9 q=37.0 size=    5142kB time=00:00:03.16 bitrate=13296.5kbits/s speed=0.157x    frame=  123 fps=5.9 q=37.0 size=    5142kB time=00:00:03.33 bitrate=12634.4kbits/s speed=0.16x    frame=  130 fps=6.1 q=36.0 size=    5142kB time=00:00:03.62 bitrate=11617.0kbits/s speed=0.169x    frame=  136 fps=6.2 q=36.0 size=    5142kB time=00:00:03.87 bitrate=10867.7kbits/s speed=0.176x    frame=  142 fps=6.3 q=36.0 size=    5842kB time=00:00:04.12 bitrate=11598.6kbits/s speed=0.182x    frame=  148 fps=6.3 q=36.0 size=    5842kB time=00:00:04.37 bitrate=10936.0kbits/s speed=0.188x    frame=  155 fps=6.5 q=35.0 size=    5842kB time=00:00:04.66 bitrate=10251.9kbits/s speed=0.195x    frame=  161 fps=6.6 q=35.0 size=    5842kB time=00:00:04.91 bitrate=9730.8kbits/s speed=0.201x    frame=  167 fps=6.6 q=35.0 size=    5842kB time=00:00:05.16 bitrate=9260.0kbits/s speed=0.206x    frame=  172 fps=6.7 q=35.0 size=    5842kB time=00:00:05.37 bitrate=8901.8kbits/s speed=0.21x    frame=  178 fps=6.8 q=35.0 size=    5842kB time=00:00:05.62 bitrate=8506.2kbits/s speed=0.215x    frame=  184 fps=6.9 q=35.0 size=    5842kB time=00:00:05.87 bitrate=8144.3kbits/s speed=0.22x    frame=  189 fps=6.9 q=35.0 size=    5842kB time=00:00:06.08 bitrate=7865.9kbits/s speed=0.223x    frame=  195 fps=7.0 q=35.0 size=    5842kB time=00:00:06.33 bitrate=7555.4kbits/s speed=0.228x    frame=  202 fps=7.1 q=35.0 size=    8734kB time=00:00:06.62 bitrate=10798.4kbits/s speed=0.233x    frame=  207 fps=7.1 q=35.0 size=    8734kB time=00:00:06.83 bitrate=10469.8kbits/s speed=0.236x    frame=  214 fps=7.2 q=34.0 size=    8734kB time=00:00:07.12 bitrate=10040.8kbits/s speed=0.241x    frame=  218 fps=7.3 q=34.0 size=    8734kB time=00:00:07.29 bitrate=9810.8kbits/s speed=0.243x    frame=  224 fps=7.3 q=34.0 size=    9928kB time=00:00:07.54 bitrate=10781.9kbits/s speed=0.247x    frame=  231 fps=7.4 q=34.0 size=    9928kB time=00:00:07.83 bitrate=10381.4kbits/s speed=0.25x    frame=  238 fps=7.5 q=34.0 size=    9928kB time=00:00:08.12 bitrate=10008.4kbits/s speed=0.255x    frame=  243 fps=7.5 q=34.0 size=    9928kB time=00:00:08.33 bitrate=9758.6kbits/s speed=0.257x    frame=  250 fps=7.6 q=34.0 size=    9928kB time=00:00:08.62 bitrate=9428.2kbits/s speed=0.261x    frame=  254 fps=7.6 q=34.0 size=    9928kB time=00:00:08.79 bitrate=9249.2kbits/s speed=0.262x    frame=  260 fps=7.6 q=34.0 size=    9928kB time=00:00:09.04 bitrate=8993.5kbits/s speed=0.266x    frame=  266 fps=7.7 q=34.0 size=    9928kB time=00:00:09.29 bitrate=8751.5kbits/s speed=0.268x    frame=  270 fps=7.7 q=34.0 size=    9928kB time=00:00:09.45 bitrate=8597.9kbits/s speed=0.269x    frame=  276 fps=7.7 q=34.0 size=    9928kB time=00:00:09.70 bitrate=8376.5kbits/s speed=0.272x    frame=  282 fps=7.8 q=33.0 size=    9928kB time=00:00:09.95 bitrate=8166.3kbits/s speed=0.274x    frame=  291 fps=7.9 q=33.0 size=    9928kB time=00:00:10.33 bitrate=7869.9kbits/s speed=0.28x    frame=  296 fps=7.9 q=33.0 size=    9928kB time=00:00:10.54 bitrate=7713.9kbits/s speed=0.282x    frame=  301 fps=7.9 q=30.0 size=    9928kB time=00:00:10.75 bitrate=7564.7kbits/s speed=0.283x    frame=  307 fps=8.0 q=33.0 size=   13706kB time=00:00:11.00 bitrate=10206.2kbits/s speed=0.285x    frame=  313 fps=8.0 q=33.0 size=   13706kB time=00:00:11.25 bitrate=9979.4kbits/s speed=0.288x    frame=  320 fps=8.1 q=33.0 size=   13706kB time=00:00:11.54 bitrate=9727.0kbits/s speed=0.291x    frame=  327 fps=8.1 q=32.0 size=   13706kB time=00:00:11.83 bitrate=9487.8kbits/s speed=0.295x    frame=  333 fps=8.2 q=32.0 size=   13706kB time=00:00:12.08 bitrate=9291.5kbits/s speed=0.297x    frame=  339 fps=8.2 q=32.0 size=   13706kB time=00:00:12.33 bitrate=9103.2kbits/s speed= 0.3x    frame=  347 fps=8.3 q=32.0 size=   13706kB time=00:00:12.66 bitrate=8863.2kbits/s speed=0.304x    frame=  353 fps=8.4 q=32.0 size=   13706kB time=00:00:12.91 bitrate=8691.6kbits/s speed=0.306x    frame=  362 fps=8.5 q=31.0 size=   13706kB time=00:00:13.29 bitrate=8446.4kbits/s speed=0.311x    frame=  369 fps=8.5 q=31.0 size=   13706kB time=00:00:13.58 bitrate=8265.5kbits/s speed=0.314x    frame=  378 fps=8.6 q=30.0 size=   13706kB time=00:00:13.95 bitrate=8043.4kbits/s speed=0.319x    frame=  384 fps=8.7 q=30.0 size=   13706kB time=00:00:14.20 bitrate=7901.9kbits/s speed=0.32x    frame=  392 fps=8.7 q=30.0 size=   13706kB time=00:00:14.54 bitrate=7720.4kbits/s speed=0.324x    frame=  400 fps=8.8 q=30.0 size=   13706kB time=00:00:14.87 bitrate=7547.6kbits/s speed=0.327x    frame=  407 fps=8.8 q=30.0 size=   17144kB time=00:00:15.16 bitrate=9259.3kbits/s speed=0.33x    frame=  410 fps=8.8 q=30.0 size=   17144kB time=00:00:15.29 bitrate=9183.6kbits/s speed=0.329x    frame=  416 fps=8.8 q=30.0 size=   17144kB time=00:00:15.54 bitrate=9035.9kbits/s speed=0.33x    frame=  421 fps=8.8 q=30.0 size=   17144kB time=00:00:15.75 bitrate=8916.6kbits/s speed=0.33x    frame=  428 fps=8.8 q=29.0 size=   17144kB time=00:00:16.04 bitrate=8754.3kbits/s speed=0.331x    frame=  435 fps=8.9 q=30.0 size=   17144kB time=00:00:16.33 bitrate=8598.3kbits/s speed=0.333x    frame=  441 fps=8.9 q=30.0 size=   17144kB time=00:00:16.58 bitrate=8468.7kbits/s speed=0.333x    frame=  447 fps=8.9 q=30.0 size=   17144kB time=00:00:16.83 bitrate=8343.0kbits/s speed=0.334x    frame=  455 fps=8.9 q=30.0 size=   17144kB time=00:00:17.16 bitrate=8180.7kbits/s speed=0.337x    frame=  462 fps=9.0 q=30.0 size=   20385kB time=00:00:17.45 bitrate=9564.9kbits/s speed=0.339x    frame=  468 fps=9.0 q=30.0 size=   20385kB time=00:00:17.70 bitrate=9429.9kbits/s speed=0.34x    frame=  473 fps=9.0 q=30.0 size=   20385kB time=00:00:17.91 bitrate=9319.9kbits/s speed=0.34x    frame=  480 fps=9.0 q=30.0 size=   20385kB time=00:00:18.20 bitrate=9171.0kbits/s speed=0.342x    frame=  488 fps=9.0 q=30.0 size=   20385kB time=00:00:18.54 bitrate=9005.8kbits/s speed=0.344x    frame=  496 fps=9.1 q=30.0 size=   20385kB time=00:00:18.87 bitrate=8846.9kbits/s speed=0.345x    frame=  500 fps=8.7 q=-1.0 Lsize=   24915kB time=00:00:20.70 bitrate=9855.7kbits/s speed=0.36x    
video:24910kB audio:0kB subtitle:0kB other streams:0kB global headers:0kB muxing overhead: 0.019641%
bench: utime=177.072s
bench: maxrss=1326784kB
[libx264 @ 0x447a1c0] frame I:8     Avg QP:24.42  size:166538
[libx264 @ 0x447a1c0] frame P:269   Avg QP:29.69  size: 58499
[libx264 @ 0x447a1c0] frame B:223   Avg QP:27.18  size: 37840
[libx264 @ 0x447a1c0] consecutive B-frames: 37.0%  8.4%  6.6% 48.0%
[libx264 @ 0x447a1c0] mb I  I16..4: 23.1% 71.4%  5.5%
[libx264 @ 0x447a1c0] mb P  I16..4: 18.8% 22.9%  0.5%  P16..4: 25.2%  3.2%  1.1%  0.0%  0.0%    skip:28.3%
[libx264 @ 0x447a1c0] mb B  I16..4:  6.8%  7.1%  0.6%  B16..8: 18.8%  2.8%  0.1%  direct: 9.7%  skip:54.1%  L0:42.9% L1:51.2% BI: 5.9%
[libx264 @ 0x447a1c0] final ratefactor: 26.63
[libx264 @ 0x447a1c0] 8x8 transform intra:54.0% inter:86.9%
[libx264 @ 0x447a1c0] coded y,uvDC,uvAC intra: 18.8% 26.9% 2.5% inter: 8.2% 9.0% 0.1%
[libx264 @ 0x447a1c0] i16 v,h,dc,p: 32% 29% 10% 29%
[libx264 @ 0x447a1c0] i8 v,h,dc,ddl,ddr,vr,hd,vl,hu: 23% 19% 36%  4%  4%  4%  4%  3%  4%
[libx264 @ 0x447a1c0] i4 v,h,dc,ddl,ddr,vr,hd,vl,hu: 18% 23% 10%  8% 10%  8% 11%  5%  8%
[libx264 @ 0x447a1c0] i8c dc,h,v,p: 71% 14% 13%  2%
[libx264 @ 0x447a1c0] Weighted P-Frames: Y:0.7% UV:0.0%
[libx264 @ 0x447a1c0] ref P L0: 85.3% 14.7%
[libx264 @ 0x447a1c0] ref B L0: 88.0% 12.0%
[libx264 @ 0x447a1c0] ref B L1: 97.1%  2.9%
[libx264 @ 0x447a1c0] kb/s:9794.68
